# xmcd CD database file
#
# Track frame offsets:
#	150
#	22322
#	47297
#	68062
#	90710
#	111292
#	135860
#	163780
#
# Disc length: 2510 seconds
#
# Revision: 0
# Processed by: cddbd v1.5.1PL0 Copyright (c) Steve Scherf et al.
# Submitted via: CDex 1.51
#
DISCID=6209cc08
DTITLE=Japanese Dream - NACK5 MUSIC CHALLENGER GrandPrix1
DYEAR=1996
DGENRE=
TTITLE0=バカンス
TTITLE1=昔みたいに
TTITLE2=Make Me Smill？
TTITLE3=Where is my blue？
TTITLE4=二重人格
TTITLE5=真冬の蜃気楼
TTITLE6=心変わりII
TTITLE7=ビア・ホール
EXTD=YEAR: 1996
EXTT0=
EXTT1=
EXTT2=
EXTT3=
EXTT4=
EXTT5=
EXTT6=
EXTT7=
PLAYORDER=
